<?xml version="1.0" encoding="UTF-8"?>
<!DOCTYPE svg PUBLIC "-//W3C//DTD SVG 1.1//EN" "http://www.w3.org/Graphics/SVG/1.1/DTD/svg11.dtd">
<!-- Creator: CorelDRAW (OEM Version) -->
<svg xmlns="http://www.w3.org/2000/svg" xml:space="preserve" width="2.34791in" height="2.01837in" version="1.1" style="shape-rendering:geometricPrecision; text-rendering:geometricPrecision; image-rendering:optimizeQuality; fill-rule:evenodd; clip-rule:evenodd"
viewBox="0 0 444.23 381.88"
 xmlns:xlink="http://www.w3.org/1999/xlink"
 xmlns:xodm="http://www.corel.com/coreldraw/odm/2003">
 <defs>
  <style type="text/css">
   <![CDATA[
    .fil0 {fill:#FEFEFE}
    .fil4 {fill:black}
    .fil1 {fill:#0D1010}
    .fil6 {fill:#121414}
    .fil2 {fill:#1F9FAF}
    .fil5 {fill:#2BA4B2}
    .fil9 {fill:#2C919B}
    .fil3 {fill:#32A5B2}
    .fil8 {fill:#44A9B9}
    .fil12 {fill:#4EACB1}
    .fil11 {fill:#50ADB1}
    .fil10 {fill:#9ECDD6}
    .fil13 {fill:#DFE0E0}
    .fil7 {fill:white}
   ]]>
  </style>
 </defs>
 <g id="PowerClip_x0020_Contents">
  <metadata id="CorelCorpID_0Corel-Layer"/>
  <g id="_2405015970032">
   <rect class="fil0" y="-0" width="444.23" height="381.88" rx="83.25" ry="83.25"/>
   <g>
    <path class="fil1" d="M249.38 178.43l0.15 0.15c-0.01,-0.01 -0.2,-0.1 -0.15,-0.15zm1.02 -2.04c0,2.6 0.01,0.85 -0.51,1.53 0,-2.7 0,-0.76 0.51,-1.53zm0 0l0 -2.04c0.6,0.95 0.57,-1.14 0.42,1.02 -0.08,1.09 -0.06,0.46 -0.42,1.02zm0.51 -3.57c0,-1.3 0.81,-0.08 0.3,0 -0.01,0 -0.3,1.42 -0.3,0zm-29.07 -37.74l1.1 0.28 -1.1 -0.28zm0 0c-2,-0.17 -4.16,-0.76 -5.1,-2.04 0.99,0.23 1.7,0.43 2.77,0.8 1.53,0.54 1.32,0.37 2.33,1.24zm-50.49 -48.45zm0.51 -1.02l-0.51 1.02zm0.51 -1.02l-0.51 1.02 0.51 -1.02zm0 0c0.35,-1.45 -0.08,-0.77 1.02,-1.53 -0.35,1.46 0.08,0.77 -1.02,1.53zm1.53 -2.04l-0.51 0.51 0.51 -0.51zm0.51 -0.51l-0.51 0.51 0.51 -0.51zm0 0zm9.69 -7.65l-9.69 7.65zm9.69 -7.65l0.15 0.15c-0.01,-0.01 -0.2,-0.1 -0.15,-0.15zm1.02 -0.51l0.15 0.15c-0.01,-0.01 -0.2,-0.1 -0.15,-0.15zm1.53 -0.51zm1.02 -0.51l-1.02 0.51zm1.02 -0.51l-1.02 0.51 1.02 -0.51zm1.02 -0.51l-1.02 0.51 1.02 -0.51zm1.53 -0.51c-0.56,0.52 0.89,0.51 -1.53,0.51 0.56,-0.52 -0.89,-0.51 1.53,-0.51zm1.02 -0.51l-1.02 0.51 1.02 -0.51zm0 0l0.99 -0.59 -0.99 0.59zm1.53 -1.02l0.15 0.15c-0.01,-0.01 -0.2,-0.1 -0.15,-0.15zm4.59 -1.53l0.15 0.15c-0.01,-0.01 -0.2,-0.1 -0.15,-0.15zm2.55 -0.51c-0.68,0.52 1.07,0.51 -1.53,0.51 0.62,-0.47 -0.57,-0.33 1.53,-0.51zm0 0c0.95,-0.6 -1.14,-0.57 1.02,-0.42 1.09,0.08 0.46,0.06 1.02,0.42l-2.04 0zm2.55 -1.02c0.24,-0.24 2.89,0.28 0.92,0.27 -0,0 -0.07,-0.01 -0.08,-0.01 -0.45,-0.12 -1.7,0.6 -0.84,-0.26zm90.79 -22.93c1.33,-1.65 2.39,-3.91 4.57,-4.69 1.69,0.81 1.84,1.45 2.98,2.63l-27.5 33.11c-7.47,9 -5.87,9.1 -9.93,5.85l29.87 -36.91zm-53.65 71.37c-0.26,1.85 -0.52,2.3 -1.42,3.44 -2.73,-0.27 -8.2,-3.12 -11.49,-4.24 -8.9,-3.05 -23.78,-6.81 -32.1,-10.64 -2.84,-1.31 -1.36,0.18 -1.91,-1.82 -2.47,-0.22 -5.84,-2.13 -7.91,-3.22 -2.61,-1.39 -4.62,-2.58 -5.93,-5.3 -1.46,-3.03 -1.42,-5.53 0.16,-8.31 3.45,-6.07 21.13,-13.94 30.13,-14.75 3.45,-0.31 6.97,-0.3 10.67,-0.69 6.49,1.67 8.37,1.94 13.6,5.08 -2.42,-4.55 -8.89,-6.08 -15.13,-7.14 -0.48,-1.15 -0.65,1.19 0.32,-0.39 0.88,-1.43 0.59,0.85 0.19,-0.46 -3.57,-0.63 -5.88,-0.66 -9.69,-0.45 -1.53,-0.57 -1.57,-0.09 0,-0.59l6.74 -0.91c-11.23,-0.97 -24.03,2.67 -31.98,7.3 -9.83,5.73 -14.36,8.8 -18.42,20.59 -0.79,-17.58 28.61,-29.85 43.65,-30.2 3.4,-0.08 13.36,1.33 16.15,2.37 1.96,0.73 2.57,1.81 4.14,0.93 -6.48,-3.59 -10.42,-2.76 -12.93,-4.32 4.73,-1.21 11.58,2.86 15.23,3.68 -2.55,-3.92 -11.79,-4.84 -17.48,-5.18 -8.76,-0.53 -27.82,5.03 -34.76,9.31 -0.98,0.6 -10.57,6.79 -10.43,7.93l0.63 1.09c-1.65,1.11 -3.73,4.16 -5.11,6.62 -2.13,3.8 -1.87,4.72 -2.62,9.11 -0.92,-1.71 -1.07,-2.75 -2.12,-4.27 -0.95,7.35 -0.51,13.93 2.87,19.34 3.06,4.89 8,5.96 14.92,8.02 7.57,2.25 20.46,5.09 27.08,7.61 1.49,0.56 7.01,2.79 7.71,3.06l-7.08 -1.49c0.11,0.09 0.27,0.19 0.36,0.25l2.25 1.05c0.86,0.28 1.9,0.54 2.73,0.84 1.69,0.6 3.07,1.39 4.62,2.06 -0.07,0.12 -0.22,0.24 -0.27,0.3 -1.21,1.44 -2.06,0.87 2.39,2.57l10.73 4.62c6.64,3.01 18.54,11.47 18.64,20.14 -1.62,-1.77 -3.29,-5.58 -6.98,-9.37 -2.2,-2.26 -5.67,-4.97 -8.94,-6.88 -6.6,-3.86 -15.65,-6.71 -23.5,-8.62l-0.07 0.82c1.28,0.83 5.5,1.99 7.36,2.61 2.51,0.84 5.29,2.33 7.71,2.72 3.61,0.62 9.36,4.86 10.38,6.91l0.32 0.45c1.95,0.36 1.61,0.27 2.39,2.1l0.67 0.68c1.75,0.71 0.56,-0.43 1.12,1.36l0.92 0.91c1.44,0.63 1.03,-0.24 1.28,1.64 2.34,2.36 6.26,10.13 6.38,14.32 0.08,2.84 -2.03,4.85 -3.38,6.8 -0.78,1.13 -1.38,1.93 -2.17,2.93 -0.83,1.04 -1.61,2.12 -2.5,3.11 -3.61,4.08 -6.36,6.53 -11.05,9.34 -3.63,2.17 -9.82,5.86 -14.06,6.85l0 1.02c2,0.04 1.2,-0.14 2.55,0.51 -1.39,2.07 -1.85,2.42 -4.59,3.06 0.55,1.35 -1.05,0.95 2.04,1.02 -1.63,2.23 -15.39,7.08 -20.06,9.01 -1.61,0.66 -1.93,0.55 -2.38,2.21 2.08,-0.17 2.54,-0.82 4.08,-1.53 1.3,-0.6 2.84,-1 4.14,-1.47 2.95,-1.06 4.97,-1.97 8.39,-2.82l8.88 -2.38c2.83,-0.66 1.69,0.4 4.45,-0.08 2.19,-0.38 1.54,-1.35 4.93,-1.42 0.41,-2.41 4.41,-2.92 9.21,-6.38 2.24,-1.61 10.45,-9.04 12.15,-11.32 1.02,-1.36 2.1,-3.34 3.96,-4.19 5.26,-2.39 3.76,-4.88 6.6,-9.3 0.48,-0.91 0.75,-2.71 0.87,-3.63 0.29,-2.17 -0.03,-2.56 1.17,-3.93l0 6.63c1.14,-1.31 1.85,-1.83 2.04,-4.08 4.53,3.04 2.04,-3.12 2.04,-7.14 1.24,1.78 1.02,2.84 1.02,5.1l1.61 0 0 -3.06c-0.16,-1.76 -0.18,-0.7 0.43,-0.75 1.25,-0.91 0.56,0.27 0.97,-1.29 -0,-3.21 -0.68,-12.05 -1.8,-14.45 -1.82,-3.88 -3.75,-7.33 -5.94,-10.4 -2.96,-4.15 -14,-13.12 -18.23,-13.86 -1.94,4.02 -1.6,4.27 -5.51,6.61 1.03,-4.49 4.9,-10.05 7.56,-12.63 1.19,2.17 -1.66,2.06 -1.21,4.5 1.48,2.55 2.99,-1.6 6.31,-2.18 2.8,-3.8 8.89,-8.47 13.04,-11.37 0.19,-0.13 0.79,-0.56 0.9,-0.63 3.79,-2.45 2.53,-2.27 4.92,-5.79 0.92,-1.36 1.74,-1.82 2.85,-3.31 1.85,-2.47 1.05,-1.4 3.79,-0.76 1.33,-1.99 2.59,-3.24 4.26,-5.1 0.96,-1.67 3.08,-4.04 4.43,-5.58 1.61,-1.83 3.03,-3.71 4.61,-5.59 2.31,-2.75 25.89,-30.84 27.05,-33.19l-8.33 -6.53c-1.52,-1.13 -2.81,-2.07 -4.48,-3.18 -1.66,-1.1 -2.59,-2.56 -3.79,-3.56l-4.07 5.42c-1.35,1.14 -0.18,0.69 -2.34,0.19 0,4.59 -0.98,3.81 -5.83,9.98 -6.56,8.35 -15.46,18.19 -21.56,26.37 -4.03,5.39 -6.4,10.85 -9.46,14l-9.39 14.58c-1.98,3.67 -3.26,7.71 -5.35,11.05z"/>
    <path class="fil2" d="M159.62 120.29zm-2.55 -2.55l2.55 2.55zm-2.55 -2.55l0.15 0.15c-0.01,-0.01 -0.2,-0.1 -0.15,-0.15zm-7.65 -2.55l-0.51 -0.51 0.51 0.51zm-0.51 -0.51zm-2.04 -2.55l2.04 2.55zm-2.04 -2.55l0.15 0.15c-0.01,-0.01 -0.2,-0.1 -0.15,-0.15zm-2.04 -3.06l0.59 0.99 -0.59 -0.99zm1.02 -3.06zm-1.02 3.06l1.02 -3.06zm-1.02 3.06c-1.9,-1.27 -5.03,-7.5 -5.1,-10.71l5.1 10.71zm7.65 -28.05zm0.51 -0.51l-0.51 0.51zm0.51 -0.51l-0.51 0.51 0.51 -0.51zm0.51 -0.51l-0.51 0.51 0.51 -0.51zm0.51 -0.51l-0.51 0.51 0.51 -0.51zm0 0zm1.53 -2.04l-1.53 2.04zm1.53 -2.04l2.43 -2.67c-0.33,1.78 -0.77,2.22 -2.43,2.67zm65.28 -31.62l2.04 0c-0.95,0.6 1.14,0.57 -1.02,0.42 -1.09,-0.08 -0.46,-0.06 -1.02,-0.42zm0 0c-2.69,0 -3.75,-0.22 -5.68,-0.44 -1.98,-0.22 -4,0.08 -5.97,-0.15 -3.1,-0.36 -8.03,-0.76 -9.76,1.61 2.4,0 2.28,0.09 4.08,0.51 -0.11,0.07 -0.3,-0 -0.36,0.14 -0.31,0.73 -4.45,0.8 -5.76,0.87 -5.1,0.27 -10.42,2.35 -15.14,3.73 -2.39,0.7 -1.52,-0.25 -2.71,1.37 5.89,1.37 11.47,-3.55 17.32,-3.03 6.23,0.56 4.17,-0.41 9.18,-0.56 4.12,-0.12 6.86,0.53 10.22,0.53l0 0.51c-8.01,0 -21.6,0.95 -28.9,4.24 -11.79,5.33 -12.8,3.24 -26.98,14.32 -1.04,0.81 -1.22,1.14 -2.13,1.95 -2.96,2.64 -3.57,2.69 -6.66,6.6 -0.09,0.12 -0.33,0.48 -0.41,0.6 -0.85,1.2 0.26,0.07 -0.86,1.18 -2.28,2.27 -7.94,4.27 -8.03,12.91 -0.06,6.13 3.29,9.37 3.61,13.26l-3.64 -7.07c-0.43,-1.21 -1.05,-2.9 -1.47,-4.13 -0.61,-1.78 -0.26,-3.06 -1,-4.61 -2.66,1.41 -1.78,1.45 -2.16,5.02 -0.34,3.24 -0.56,2.45 0.96,5.35 3.41,6.53 3,8.03 7.46,13.96 2.91,3.87 2.83,4.36 6.78,7.5 2.27,1.81 1.26,2.33 4.81,2.33l-4.8 -4.38c-0.07,-0.07 -0.18,-0.18 -0.25,-0.26 -1.94,-2.01 -2.61,-2.41 -3.11,-4.54 1.77,1.18 2.81,2.79 4.51,4.16 2.6,2.1 13.22,10.57 16.4,9.1 -2.09,-3.13 -9.6,-4.01 -10.71,-8.16l9.85 5.45c5.08,2.55 24.81,7.5 30.47,8.29 3.03,0.42 3.76,1.35 6.82,1.57l0.07 -0.82c7.85,1.91 16.9,4.76 23.5,8.62 3.27,1.91 6.74,4.62 8.94,6.88 3.68,3.79 5.35,7.6 6.98,9.37 -0.09,-8.67 -12,-17.13 -18.64,-20.14l-10.73 -4.62c-4.45,-1.71 -3.61,-1.13 -2.39,-2.57 0.05,-0.06 0.2,-0.18 0.27,-0.3 -1.55,-0.67 -2.93,-1.46 -4.62,-2.06 -0.84,-0.3 -1.88,-0.55 -2.73,-0.84l-2.25 -1.05c-0.09,-0.05 -0.24,-0.16 -0.36,-0.25l7.08 1.49c-0.7,-0.27 -6.23,-2.5 -7.71,-3.06 -6.62,-2.51 -19.52,-5.36 -27.08,-7.61 -6.92,-2.06 -11.86,-3.13 -14.92,-8.02 -3.39,-5.41 -3.82,-12 -2.87,-19.34 1.05,1.52 1.2,2.57 2.12,4.27 0.75,-4.39 0.49,-5.31 2.62,-9.11 1.38,-2.46 3.45,-5.52 5.11,-6.62l-0.63 -1.09c-0.14,-1.14 9.45,-7.32 10.43,-7.93 6.94,-4.28 26.01,-9.84 34.76,-9.31 5.7,0.34 14.94,1.26 17.48,5.18 -3.65,-0.83 -10.5,-4.89 -15.23,-3.68 2.5,1.55 6.44,0.73 12.93,4.32 -1.58,0.88 -2.18,-0.21 -4.14,-0.93 -2.8,-1.03 -12.75,-2.45 -16.15,-2.37 -15.05,0.36 -44.44,12.63 -43.65,30.2 4.06,-11.78 8.59,-14.85 18.42,-20.59 7.94,-4.63 20.74,-8.27 31.98,-7.3l-6.74 0.91 0 0.59c3.81,-0.21 6.12,-0.18 9.69,0.45 0.4,1.31 0.69,-0.97 -0.19,0.46 -0.97,1.58 -0.8,-0.75 -0.32,0.39 6.24,1.06 12.71,2.59 15.13,7.14 -5.24,-3.14 -7.11,-3.41 -13.6,-5.08 0.09,0.09 0.24,0.1 0.28,0.27l4.84 4.94c2.34,3.3 1.33,4.15 1,8.18 0.81,0.4 -0.94,0.52 1.53,0 -1.27,2.41 -1.47,1.89 0,4.08 2.69,-0.72 1.94,-2.51 4.08,-4.08 0,0.72 -2.52,9.73 2.69,3.72 4.6,-5.3 0.45,-8.95 4.45,-6.27l1.02 -2.55c0.23,2.7 1.02,5.05 1.02,8.16 0.85,-0.2 3.69,-1.25 4.41,-1.71 1.77,-1.15 0.9,-1.82 2.76,-3.36 1.26,-1.04 0.25,1.26 1.43,-1.63 0.02,-0.04 0.65,-2.27 0.69,-2.41 0.48,-1.94 -0.09,-3.32 0.23,-5.3 0.7,-4.37 0.86,-6.86 -0.84,-10.58 -2.1,-4.59 -2.9,-4.94 -4.6,-8.15 1.62,0.59 2.69,2.48 3.06,4.08l1.02 0c-0.06,-2.48 -0.16,-1.83 -1.13,-3.5 -2.81,-4.83 2.86,-0.73 -5.14,-7.57 -5.51,-4.72 -12.68,-7.22 -20.28,-7.77 -1.55,-0.11 -2.84,0.04 -4.42,-0.17 -10.18,-1.37 -16.02,1.25 -21.05,1.67l0 1.53c-2.22,0.19 -4.9,1.04 -6.78,1.38l-4.74 1.38c-1.19,0.62 -0.5,0.17 -1.23,0.81 6.11,0 18.03,-4.2 35.23,-1.07l1.99 0.56z"/>
    <path class="fil3" d="M211.64 172.82l0.15 0.15c-0.01,-0.01 -0.2,-0.1 -0.15,-0.15zm1.53 -0.51zm1.02 -0.51l-1.02 0.51zm1.02 -0.51l-1.02 0.51 1.02 -0.51zm0 0l0.99 -0.59 -0.99 0.59zm-16.32 -0.51l-0.99 0.59 0.99 -0.59zm17.85 -0.51l0.15 0.15c-0.01,-0.01 -0.2,-0.1 -0.15,-0.15zm1.02 -0.51l0.15 0.15c-0.01,-0.01 -0.2,-0.1 -0.15,-0.15zm-18.87 1.02l0.66 -0.42c2.76,-1.24 2.74,-0.21 2.91,-0.09 -1.98,0.16 -1.33,0.46 -3.57,0.51zm4.08 -1.53l0.15 0.15c-0.01,-0.01 -0.2,-0.1 -0.15,-0.15zm17.85 -1.02zm0 0zm0 0c0.76,-1.1 0.07,-0.67 1.53,-1.02 -0.76,1.1 -0.08,0.67 -1.53,1.02zm1.53 -1.02c0.75,-1.03 1.63,-1.66 3.06,-2.04 -0.99,1.48 -1.05,1.57 -3.06,2.04zm-14.28 -2.04l-0.99 0.59 0.99 -0.59zm1.02 -0.51l-1.02 0.51 1.02 -0.51zm16.32 0.51c0.76,-1.1 0.07,-0.67 1.53,-1.02 -0.76,1.1 -0.07,0.67 -1.53,1.02zm-15.3 -1.02l-1.02 0.51 1.02 -0.51zm16.83 0zm-20.91 -1.02l20.91 1.02zm-20.91 -1.02l0.15 0.15c-0.01,-0.01 -0.2,-0.1 -0.15,-0.15zm4.08 1.02l3.57 -1.53c-0.99,1.35 -1.28,1.48 -3.57,1.53zm-2.04 -1.53l-0.99 0.59 0.99 -0.59zm0 0l1 -0.59 -1 0.59zm1.53 -1.02l0.15 0.15c-0.01,-0.01 -0.2,-0.1 -0.15,-0.15zm1.02 -0.51c0.54,-0.54 1.93,0.81 0.57,0.27 -0.01,-0 -1.42,0.59 -0.57,-0.27zm2.55 -0.51l-0.99 0.59 0.99 -0.59zm1.02 -0.51l-1.02 0.51 1.02 -0.51zm0 0l0.99 -0.59 -0.99 0.59zm1.53 -1.02l0.15 0.15c-0.01,-0.01 -0.2,-0.1 -0.15,-0.15zm1.53 -0.51zm1.02 -0.51l-1.02 0.51zm1.02 -0.51l-1.02 0.51 1.02 -0.51zm11.22 -3.06l0.15 0.15c-0.01,-0.01 -0.2,-0.1 -0.15,-0.15zm1.53 -0.51zm0 0zm0 0zm1.53 -1.02l-1.53 1.02zm1.53 -1.02zm-96.38 1.04l96.38 -1.04zm-96.38 1.04c2.75,1 2.06,3.02 2.24,6.11 0.14,2.48 4.23,8.35 5.93,9.69 1.73,1.37 3.04,1.87 3.85,4.07l3.11 1.7c1.03,0.61 0.52,0.26 1.2,0.85l-4.08 0c0.84,1.14 1.61,1.22 2.55,2.04l-7.51 -1.21c-1.32,-0.95 0.1,-0.55 -1.67,-1.85 0.51,6.18 0.09,1.6 0,5.61 8.15,5.46 1.3,1.41 8.84,5.01 0.78,0.37 0.64,-0.22 0.91,0.68 0.01,0.04 0.02,0.19 0.01,0.23l-0.58 1.22c1.58,0.37 4.31,0.98 6.12,1.02l-2.04 1.53c2.55,0.21 6.95,1.12 9.46,0.82 3.58,-0.43 6.28,-0.56 9.63,-1.11l13.7 -2.62c7.94,-3.85 17.83,-4.43 28.06,-10.18 1.48,-0.83 1.95,-1.22 3.58,-2.03l3.4 -2.21c-6.66,0 -6.7,3.66 -11.73,4.08 1.26,-1.88 5.86,-3.85 8.07,-5.19 2.94,-1.78 5.33,-3.1 8.04,-5.21 1.36,-1.06 3.97,-3.43 4.67,-5.05 0.97,-2.22 0.16,-1.4 0.4,-2.39 0.42,-1.7 5.93,-5.43 7.63,-5.61 -0.25,-1.87 0.16,-1 -1.28,-1.64l-1.1 1.04c-0.65,0.56 -0.82,0.66 -1.44,1.12 -11.72,8.7 -34.48,21.92 -49.47,21.92l6.95 -2.23c2.73,-0.89 4.53,-1.55 7.11,-2.58 1.21,-0.49 2.22,-0.9 3.27,-1.32 6.62,-2.59 2.86,-1.45 5.75,-3.43 1.45,-0.99 2.64,-0.1 9.84,-4.43 4.99,-3 6.77,-4.36 12.29,-7.09 5.58,-2.75 3.34,-2.41 5.88,-3.91 -0.57,-1.78 0.63,-0.64 -1.12,-1.36 -0.56,0.59 -1.1,0.93 -1.85,1.53 -1.33,1.08 -0.45,0.88 -2.23,1.36l3.41 -3.57c-0.78,-1.83 -0.44,-1.74 -2.39,-2.1 -0.5,2 -1.56,2.17 -3.06,3.13 -1.35,0.87 -2.56,1.69 -3.98,2.65 -2.03,1.36 -5.84,3.92 -8.26,4.49 1.04,-1.42 2.04,-1.44 3.67,-2.45 1.43,-0.88 2.65,-1.78 3.98,-2.65 1.97,-1.31 5.73,-3.86 7.32,-5.61 -1.03,-2.05 -6.77,-6.29 -10.38,-6.91 0.5,0.99 0.39,0.91 1.02,1.81 -0.85,0.98 -1.64,1.58 -2.04,3.06 1.88,-0.44 3.61,-1.06 5.61,-1.53 -1.52,5.7 -7.04,3.72 -10.82,5.49l-6.88 2.81c-1.29,0.55 -2.54,0.92 -3.72,1.38 -2.61,1.03 -5.19,1.86 -8.16,2.55 0.12,-1.5 -0.89,-1.66 4.4,-3.25 2.49,-0.75 3.98,-0.58 5.29,-2.36 -3.02,0 -19.85,5.62 -27.06,7.1 -7.12,1.47 -12.17,1.68 -18.19,2.71 -2.28,0.39 -3.37,2.01 -7.06,1.22l-3.82 -0.88c-0.08,0.06 -0.44,0.38 -0.57,0.45 -0.9,0.54 1.51,0.53 -1.94,0.61 1.2,1.64 -0.23,0.26 1.71,1.35l1.01 0.52c0.07,0.04 0.23,0.1 0.33,0.18 -10.28,0 -11.26,-4.23 -14.58,-12.96 -0.73,-1.91 -1.74,-5.16 -1.74,-7.44 -3.23,0.27 -1.73,1.02 -1.56,4.08 0.24,4.3 -0.98,3.49 2.07,5.1l0 2.06z"/>
    <path class="fil4" d="M287.63 291.64l11.22 0 0 -15.3c0,-1.58 6.78,-7.74 8.16,-8.67 1.41,2.66 13.27,22.08 13.77,23.97l14.28 0c-1.59,-3.01 -2.98,-4.99 -4.89,-7.85 -1.9,-2.84 -3.34,-5.27 -5.2,-8.06 -3.54,-5.31 -6.82,-10.5 -10.3,-15.71 2.11,-3.15 6.73,-7.5 9.56,-10.33l9.82 -10.58 -14.79 0 -15.15 16.98c-1.74,2.09 -3.08,4.01 -5.25,5.46l0 -22.44 -11.22 0 0 52.53z"/>
    <path class="fil4" d="M106.59 291.64l11.22 0 0 -15.3c0,-1.58 6.78,-7.74 8.16,-8.67l10.36 17.69c0.95,1.58 2.99,4.71 3.41,6.28l14.28 0 -20.4 -31.62c2.6,-3.89 17.54,-18.16 19.38,-20.91l-14.79 0 -12.36 14.16c-2.73,2.75 -6.12,6.99 -8.04,8.28l0 -22.44 -11.22 0 0 52.53z"/>
    <path class="fil4" d="M87.21 276.34c0,9.06 -20.63,10.08 -20.91,-2.55 -4.32,0 -6.49,0.51 -10.71,0.51 0,10.66 8.1,18.36 18.87,18.36 7.8,0 17.68,0.14 22.12,-8.99 4.64,-9.53 0.69,-18.48 -9.58,-22.42 -4.42,-1.7 -19.17,-3.6 -19.17,-8.37 0,-5.64 7.24,-5.1 10.71,-5.1 4.3,0 7.05,2.99 7.14,7.14 3.62,0 11.22,0.78 11.22,-1.02 0,-9.02 -8.06,-15.81 -16.83,-15.81l-6.63 0c-12.07,0 -20.73,12.6 -13.48,23.17 7.28,10.63 27.25,6.72 27.25,15.07z"/>
    <polygon class="fil4" points="356.98,247.78 372.28,247.78 372.28,291.64 383.5,291.64 383.5,247.78 398.8,247.78 398.8,239.11 356.98,239.11 "/>
    <polygon class="fil4" points="223.88,291.64 261.11,291.64 261.11,282.97 235.1,282.97 235.1,239.11 223.88,239.11 "/>
    <polygon class="fil4" points="179.51,291.64 216.74,291.64 216.74,282.97 190.73,282.97 190.73,239.11 179.51,239.11 "/>
    <path class="fil5" d="M265.7 163.4l-0.43 0.75 0 3.06 -3.8 11.06c-2.51,5.07 -5.71,5.74 -5.97,8.82 2.31,0.05 2.54,0.8 3.97,-0.58 2.56,-2.47 -0.55,-1.8 2.66,-3.5 -0.13,5.9 -3.46,2.11 -3.57,7.14 6.07,-4.07 3.15,0.21 6.46,-3.23l0.49 -0.53c3.08,-3.14 6,-5.09 8.15,-10.21 5.65,-13.45 -1.03,-25.91 -1.13,-27.03 -0.19,-2.05 0.29,-0.92 0.81,-2.23 0.85,-2.14 -2.84,-7.04 -5.45,-8.92 -3.94,-2.84 -5.63,-8.07 -10.84,-12.1l-9.18 -6.19c-3.32,0.58 -4.84,4.73 -6.31,2.18 -0.45,-2.45 2.4,-2.33 1.21,-4.5 -2.66,2.58 -6.53,8.14 -7.56,12.63 3.91,-2.34 3.57,-2.59 5.51,-6.61 4.22,0.74 15.26,9.71 18.23,13.86 2.19,3.07 4.12,6.52 5.94,10.4 1.13,2.4 1.8,11.24 1.8,14.45 -0.41,1.56 0.28,0.37 -0.97,1.29z"/>
    <polygon class="fil4" points="158.6,291.64 169.82,291.64 169.82,239.11 158.6,239.11 "/>
    <polygon class="fil4" points="339.64,291.64 350.86,291.64 350.86,239.11 339.64,239.11 "/>
    <path class="fil6" d="M316.18 37.68l0.15 0.15c-0.01,-0.01 -0.2,-0.1 -0.15,-0.15zm-1.02 -0.51zm0 0zm0 0l-0.51 -0.51 0.51 0.51zm-0.51 -0.51zm-1.53 -1.02l1.53 1.02zm-1.53 -1.02l0.15 0.15c-0.01,-0.01 -0.2,-0.1 -0.15,-0.15zm-13.21 -1.53c1.65,2.33 4.6,3.66 7.03,5.68 11.48,9.55 12.12,5.73 0.64,20.41 -5.51,7.05 -16.6,23.65 -23.06,26.87 0.13,1.59 -0.19,0.64 0.3,1.61 3.58,-0.68 11.36,-7.57 13.96,-10.25 0.07,-0.08 0.18,-0.19 0.25,-0.26l15.21 -19.47c2.28,-3.62 4.52,-6.58 4,-10.81 -0.39,-3.15 -0.83,-0.87 -1.55,-3.58 1.54,-2.29 7.92,-8.15 2.63,-13.38 -2.94,-2.91 -0.12,-1.37 -1.61,-4.47 -1.87,0.5 -1.07,0.54 -2.55,1.53 -1.11,-0.96 -3.42,-1.73 -4.79,-1.86 -2.31,-0.23 -2.86,1.06 -3.87,2.41 -2.4,3.19 -0.83,-0.56 -4.02,1.51 -0.89,0.57 -2.09,3.05 -2.56,4.06z"/>
    <path class="fil1" d="M162.68 194.24c-4.93,0 -7.59,-1.47 -11.73,-0.51 1.78,1.24 2.84,1.02 5.1,1.02l-3.06 1.53c3.71,0.08 6.17,1.53 15.81,1.53 7.61,0 14.1,-3.03 20.63,-4.36 3.05,-0.62 2.4,0.35 4.75,-1.37 4.93,-3.61 14.27,-5.26 22.03,-10.1 1.58,-0.99 1.56,-1.42 3.8,-2.32 3.11,-1.26 17.29,-10.74 18.15,-13.98l-15.51 10.5c-5.26,3.64 -10.65,6.56 -16.69,8.81 -9.2,3.41 -32.56,9.25 -43.27,9.25z"/>
    <path class="fil7" d="M262.87 82.25c4.05,3.25 2.46,3.15 9.93,-5.85l27.5 -33.11c-1.14,-1.18 -1.29,-1.83 -2.98,-2.63 -2.18,0.78 -3.24,3.04 -4.57,4.69l-29.87 36.91z"/>
    <path class="fil7" d="M297.1 35.13c1.2,1 2.12,2.46 3.79,3.56 1.68,1.11 2.96,2.05 4.48,3.18l8.33 6.53c-1.16,2.35 -24.74,30.44 -27.05,33.19 -1.58,1.88 -3,3.77 -4.61,5.59 -1.35,1.54 -3.47,3.91 -4.43,5.58 2.69,-0.07 1.85,-0.46 3.54,-1.89 1.31,-1.11 2.42,-1.26 3.69,-2.19 -0.49,-0.98 -0.17,-0.02 -0.3,-1.61 6.46,-3.21 17.54,-19.81 23.06,-26.87 11.48,-14.68 10.84,-10.86 -0.64,-20.41 -2.43,-2.02 -5.38,-3.35 -7.03,-5.68 -2.6,0.06 -1.37,-0.41 -2.81,1.02z"/>
    <path class="fil8" d="M239.1 116.72l-11.14 -3.57c-2.02,-0.49 -2.54,-0.14 -3.57,-1.53 3.87,0.09 8.44,2.74 12.24,3.06 -6.2,-5.39 -29.46,-8.69 -38.11,-10.34 -2.41,-0.46 -2.94,-0.88 -6.34,-0.88 0.55,2 -0.93,0.52 1.91,1.82 8.32,3.82 23.2,7.59 32.1,10.64 3.29,1.13 8.76,3.97 11.49,4.24 0.9,-1.15 1.16,-1.59 1.42,-3.44z"/>
    <path class="fil4" d="M250.91 333.97l3.06 0 0 -13.26 5 7.24c0.9,1.35 1.53,2.26 2.43,3.69 1.4,2.23 0.95,2.33 4.3,2.33l0 -18.36 -2.55 0 0 13.26c-2.63,-1.93 -7.8,-13.26 -10.2,-13.26l-2.04 0 0 18.36z"/>
    <path class="fil4" d="M54.57 324.79c0.6,0.86 0.07,1.02 1.53,1.02l67.83 0c1.44,0 0.94,-0.22 1.53,-1.02 -0.6,-0.86 -0.07,-1.02 -1.53,-1.02l-67.83 0c-0.92,0 -1.4,0.26 -1.53,1.02z"/>
    <path class="fil4" d="M328.42 324.79c0.6,0.86 0.07,1.02 1.53,1.02l67.83 0c1.44,0 0.94,-0.22 1.53,-1.02 -0.6,-0.86 -0.07,-1.02 -1.53,-1.02l-67.83 0c-0.92,0 -1.4,0.26 -1.53,1.02z"/>
    <path class="fil4" d="M308.02 323.77l-4.59 0 0 -6.12c5.69,0 9.18,-0.86 9.18,3.57 0,2 -2.52,2.55 -4.59,2.55zm-7.14 10.2l2.55 0 0 -8.16c4.82,0 6,0.22 10.2,8.16l3.06 0c-0.55,-2.36 -3.99,-6.75 -5.61,-8.16 7.39,-1.72 4.83,-10.2 0,-10.2l-10.2 0 0 18.36z"/>
    <path class="fil9" d="M224.58 205.46c1.66,-1.02 3.9,-1.16 6.13,-1.84 2.6,-0.78 3.07,-1.94 4.97,-3.21 3.55,-2.37 3.03,0.82 5.58,-1.5 0.44,-0.4 1.15,-1.51 1.86,-2.26l4.06 -3.67c0.53,-0.39 -0.39,0.74 0.75,-0.75 3.41,-4.43 8.38,-8.5 8.58,-17.97 -2.84,4.42 -1.34,6.91 -6.6,9.3 -1.86,0.84 -2.94,2.82 -3.96,4.19 -1.71,2.29 -9.92,9.71 -12.15,11.32 -4.8,3.46 -8.81,3.98 -9.21,6.38z"/>
    <path class="fil4" d="M223.37 324.28c0,10.87 10.24,11.5 14.79,9.18 3.43,-1.75 2.55,-1.52 2.55,-8.67l-8.16 0 0 2.04 5.61 0c0,1.81 0.48,5.61 -5.1,5.61 -9.18,0 -8.49,-15.3 -0.51,-15.3 2.75,0 4.88,1.47 5.1,4.08 1.98,-0.04 2.02,0.49 2.42,-1.07 0.17,-0.66 -0.67,-2.3 -1.09,-2.8 -2.41,-2.92 -9.43,-3.38 -12.97,0.39 -1.54,1.64 -2.65,5.2 -2.65,6.53z"/>
    <path class="fil4" d="M142.8 331.93l-3.57 0 0 -14.28c7.12,0 9.69,-0.07 9.69,8.16 0,3.94 -2.18,6.12 -6.12,6.12zm-6.12 2.04l7.65 0c5.03,0 7.65,-4.26 7.65,-9.18 0,-4.3 -2.36,-9.18 -6.63,-9.18l-8.67 0 0 18.36z"/>
    <path class="fil4" d="M185.63 320.2c0,6.86 11.16,4.28 11.73,8.67 0.42,3.22 -5.86,5.03 -8.52,1.89 -2.08,-2.45 0.67,-2.91 -3.72,-2.91 0.2,9.13 14.79,8.55 14.79,1.02 0,-6.73 -7.41,-3.7 -11.73,-8.67 0.5,-0.94 0.51,-1.45 1.44,-2.13 1.83,-1.35 4.9,-1.24 6.26,0.55 1.45,1.93 -0.09,2.08 3.52,2.08 -0.67,-8.09 -13.77,-7.01 -13.77,-0.51z"/>
    <polygon class="fil4" points="276.92,333.97 290.69,333.97 290.69,331.93 279.47,331.93 279.47,325.3 289.67,325.3 289.67,323.26 279.47,323.26 279.47,317.65 290.18,317.65 290.18,315.61 276.92,315.61 "/>
    <polygon class="fil4" points="162.17,333.97 175.94,333.97 175.94,331.93 164.72,331.93 164.72,325.3 174.92,325.3 174.92,323.26 164.72,323.26 164.72,317.65 175.43,317.65 175.43,315.61 162.17,315.61 "/>
    <path class="fil10" d="M147.15 174.86c-0.81,-2.2 -2.11,-2.7 -3.85,-4.07 -1.69,-1.34 -5.78,-7.21 -5.93,-9.69 -0.18,-3.09 0.51,-5.1 -2.24,-6.11 0,7.7 -0.19,4.01 -1.02,7.12 0.45,0.67 2.7,3.1 0.27,5.33 -1.06,0.97 0.39,0.75 -1.8,0.28 0.05,2.23 1.13,5.51 2.55,7.14 0,-5.89 -1.97,-3.08 -0.51,-6.12 3,0.8 0.3,0.99 3.94,4.22 1.36,1.2 3.32,2.48 5.24,2.92 -1.11,-1.65 -2.46,-2.34 -3.06,-4.59 2.17,1.15 4.17,2.47 6.4,3.57z"/>
    <polygon class="fil4" points="210.62,333.97 213.68,333.97 213.68,315.61 210.62,315.61 "/>
    <path class="fil11" d="M154.52 67.26c2.66,-0.62 8.46,-7.68 14.28,-8.16 -0.69,-0.99 0.06,-1.02 -2.04,-1.02 -3.29,0 -5.71,1.99 -7.73,3.49 -4.79,3.56 -5.07,3.02 -4.51,5.69z"/>
    <path class="fil11" d="M147.38 71.85zm0 0zm0 0l0.57 -2.02c-1.43,0.9 -1.76,0.89 -2.75,2.39 -0.95,1.43 -0.88,2.01 -0.88,4.22 1.85,-0.43 1.49,-0.28 2.47,-1.61 0.7,-0.95 1.29,-1.79 1.61,-2.98l-1.02 0z"/>
    <path class="fil12" d="M138.71 88.16c2.44,-0.2 1.91,-0.44 2.47,-2.63 0.41,-1.63 0.59,-2.48 0.59,-4.51 -1.6,1.17 -2.96,5.93 -3.06,7.14z"/>
    <path class="fil11" d="M140.76 80c1.22,-0.89 2.89,-3.62 3.06,-5.61 -2.06,1.38 -3.06,2.74 -3.06,5.61z"/>
    <path class="fil11" d="M162.17 64.2c2.32,-0.19 2.5,-1.43 5.1,-2.04 -1.08,-1.5 -0.35,-1.11 -2.46,0.06 -1.46,0.81 -1.75,0.65 -2.64,1.98z"/>
    <polygon class="fil11" points="161.15,64.71 160.64,64.71 161.07,65.3 "/>
    <polygon class="fil11" points="161.15,64.71 161.66,64.71 161.24,64.11 "/>
    <path class="fil13" d="M239.18 90.71l0.15 -0.15c-0.01,0.01 -0.2,0.1 -0.15,0.15z"/>
    <path class="fil13" d="M290.69 39.72l0.15 -0.15c-0.01,0.01 -0.2,0.1 -0.15,0.15z"/>
    <path class="fil13" d="M237.65 200.36l0.15 -0.15c-0.01,0.01 -0.2,0.1 -0.15,0.15z"/>
   </g>
  </g>
 </g>
</svg>
